<svg xmlns="http://www.w3.org/2000/svg" viewBox="0 0 440 200" class="design-iconfont">
  <defs>
    <linearGradient x1="51.9445544%" y1="48.8101408%" x2="52.6037065%" y2="51.1972557%" id="yoe8jzgg5__n8irn6a5fa">
      <stop stop-color="#E8EAED" stop-opacity=".2" offset="0%"/>
      <stop stop-color="#E8EAED" stop-opacity=".6" offset="100%"/>
    </linearGradient>
    <linearGradient x1="49.9966667%" y1="-.00285714%" x2="49.9966667%" y2="99.9971429%" id="yoe8jzgg5__4av9foufnb">
      <stop stop-color="#F2F3F5" offset="0%"/>
      <stop stop-color="#E5E8EB" offset="100%"/>
    </linearGradient>
    <linearGradient x1="49.9963158%" y1="25.8240741%" x2="49.9963158%" y2="74.1759259%" id="yoe8jzgg5__rx9gx3ikyc">
      <stop stop-color="#E1E2E6" offset="0%"/>
      <stop stop-color="#EEF0F2" offset="100%"/>
    </linearGradient>
    <linearGradient x1="49.9968421%" y1=".00333333%" x2="49.9968421%" y2="99.4033333%" id="yoe8jzgg5__vna15s3djd">
      <stop stop-color="#F3F4F5" offset="0%"/>
      <stop stop-color="#E6E8EB" offset="100%"/>
    </linearGradient>
    <linearGradient x1="50.0054839%" y1="2.08185185%" x2="50.0054839%" y2="100.011852%" id="yoe8jzgg5__dgn9ijgjye">
      <stop stop-color="#E7E9EB" offset="0%"/>
      <stop stop-color="#E7E9EB" offset="100%"/>
    </linearGradient>
  </defs>
  <g fill="none" fill-rule="evenodd">
    <path fill="#C4C6CC" fill-rule="nonzero" d="M111.685117 0A1.17622017 1.17622017 0 1 0 111.685117 2.35244034A1.17622017 1.17622017 0 1 0 111.685117 0Z" transform="translate(131.04744 10)"/>
    <path fill="#C4C6CC" fill-rule="nonzero" d="M159.910144 96.45005396A2.35244034 2.35244034 0 1 0 159.910144 101.15493464000001A2.35244034 2.35244034 0 1 0 159.910144 96.45005396Z" transform="translate(131.04744 10)"/>
    <path fill="#C4C6CC" fill-rule="nonzero" d="M25.8210444 63.51588916A2.35244034 2.35244034 0 1 0 25.8210444 68.22076984A2.35244034 2.35244034 0 1 0 25.8210444 63.51588916Z" transform="translate(131.04744 10)"/>
    <path d="M27.5853746,151.850024 C46.6401414,147.733253 75.3399135,146.321789 94.0418142,147.262765 C112.626093,148.203741 132.974702,150.909048 132.974702,150.909048 C132.974702,150.909048 138.267693,148.674229 137.797205,149.497584 C137.444338,150.43856 134.974276,151.732402 136.620984,152.20289 C138.267693,152.673378 154.852397,154.437708 161.792096,155.849172 C168.731795,157.260637 171.907589,158.554479 171.907589,158.554479 C171.907589,158.554479 176.377226,150.791426 186.375098,151.732402 C186.375098,152.438134 182.728815,153.37911 181.434973,155.378684 C180.141131,157.378259 177.553446,158.789723 177.553446,158.789723 C177.553446,158.789723 179.670643,157.613503 183.316925,159.377833 C186.963208,161.142163 190.491868,161.730273 190.491868,161.965517 C190.491868,162.200761 188.84516,166.082288 175.553872,163.376982 C170.143259,161.965517 167.437953,169.375704 141.090621,171.140035 C114.743289,172.904365 70.1645448,174.315829 70.1645448,174.315829 C70.1645448,174.315829 72.164119,177.021136 76.2808896,177.962112 C76.2808896,177.962112 73.4579612,180.667418 67.8121044,179.844064 C62.1662476,178.903088 56.0499027,174.315829 56.0499027,174.315829 C56.0499027,174.315829 41.1119066,173.374853 35.3484277,172.433877 C29.5849489,171.492901 23.23336,169.258082 18.7637233,168.787594 C14.2940867,168.317106 -5.93690022,166.082288 1.70853088,161.024541 C1.70853088,161.024541 8.53060787,155.966794 27.5853746,151.850024 Z" fill="url(#yoe8jzgg5__n8irn6a5fa)" transform="translate(131.04744 10)"/>
    <path d="M38.7594662,77.6305312 L139.914401,77.6305312 C143.207817,77.6305312 145.795502,80.2182156 145.795502,83.511632 L145.795502,154.084842 C145.795502,157.378259 143.207817,159.965943 139.914401,159.965943 L38.7594662,159.965943 C35.4660498,159.965943 32.8783654,157.378259 32.8783654,154.084842 L32.8783654,83.511632 C32.8783654,80.2182156 35.4660498,77.6305312 38.7594662,77.6305312 Z" fill="url(#yoe8jzgg5__4av9foufnb)" fill-rule="nonzero" transform="translate(131.04744 10)"/>
    <path fill="#C4C6CC" fill-rule="nonzero" d="M26.1739104 150.556182L26.1739104 164.317958 39.9356864 164.317958 39.9356864 167.023264 26.1739104 167.023264 26.1739104 167.023264 23.468604 167.023264 23.468604 150.556182z" transform="translate(131.04744 10)"/>
    <path fill="#C4C6CC" fill-rule="nonzero" d="M152.499957 150.556182L152.499957 164.317958 138.738181 164.317958 138.738181 167.023264 152.499957 167.023264 152.499957 167.023264 155.205263 167.023264 155.205263 150.556182z" transform="translate(131.04744 10)"/>
    <g fill-rule="nonzero">
      <path d="M15.8789723,19.7604989 L17.7609246,29.0526382 C17.9961686,29.9936143 17.2904365,30.9345905 16.3494604,31.1698345 C16.2318383,31.1698345 16.1142163,31.1698345 15.9965943,31.1698345 L7.52780909,31.1698345 C6.58683295,31.1698345 5.76347883,30.3464804 5.76347883,29.4055042 C5.76347883,29.2878822 5.76347883,29.1702602 5.76347883,29.0526382 L7.6454311,19.7604989 C4.11677059,18.2314126 1.76433025,14.9379962 1.76433025,11.1740916 C1.76433025,5.99872287 6.2339669,1.76433025 11.7622017,1.76433025 C17.2904365,1.76433025 21.7600731,5.99872287 21.7600731,11.1740916 C21.7600731,14.9379962 19.4076328,18.2314126 15.8789723,19.7604989 Z" fill="#979BA5" transform="translate(208.622172 115.859815)"/>
      <path d="M16.4670824,32.3460547 L7.52780909,32.3460547 C5.88110085,32.3460547 4.58725866,31.0522125 4.58725866,29.4055042 L4.58725866,28.8173942 L6.2339669,20.466231 C2.70530639,18.5842787 0.470488068,15.0556182 0.470488068,11.1740916 C0.470488068,5.29299076 5.5282348,0.588110085 11.6445797,0.588110085 C17.7609246,0.588110085 22.8186713,5.29299076 22.8186713,11.1740916 C22.8186713,15.0556182 20.583853,18.5842787 17.0551925,20.466231 L18.7019007,28.8173942 C19.0547667,30.2288584 17.9961686,31.8755666 16.4670824,32.3460547 L16.4670824,32.3460547 Z M6.939699,29.1702602 L6.939699,29.4055042 C6.939699,29.6407483 7.29256505,29.9936143 7.52780909,29.9936143 L16.1142163,29.9936143 C16.3494604,29.8759923 16.5847044,29.5231263 16.5847044,29.2878822 L14.4675081,19.0547667 L15.2908622,18.7019007 C18.4666567,17.2904365 20.466231,14.4675081 20.466231,11.1740916 C20.466231,6.58683295 16.4670824,2.94055042 11.6445797,2.94055042 C6.82207698,2.94055042 2.82292841,6.58683295 2.82292841,11.1740916 C2.82292841,14.4675081 4.8225027,17.2904365 7.99829715,18.7019007 L8.82165127,19.0547667 L6.939699,29.1702602 Z" fill="url(#yoe8jzgg5__rx9gx3ikyc)" transform="translate(208.622172 115.859815)"/>
    </g>
    <path d="M38.7594662,77.6305312 L139.914401,77.6305312 C143.207817,77.6305312 145.795502,80.2182156 145.795502,83.511632 L145.795502,83.511632 C145.795502,86.8050485 143.207817,89.3927329 139.914401,89.3927329 L38.7594662,89.3927329 C35.4660498,89.3927329 32.8783654,86.8050485 32.8783654,83.511632 L32.8783654,83.511632 C32.8783654,80.2182156 35.4660498,77.6305312 38.7594662,77.6305312 Z" fill="#F8F9FA" fill-rule="nonzero" transform="translate(131.04744 10)"/>
    <path d="M122.859208,52.4594196 C122.859208,33.6398969 107.80359,18.3490346 89.3369335,18.3490346 C70.8702769,18.3490346 55.8146587,33.6398969 55.8146587,52.4594196 L55.8146587,52.4594196 L55.8146587,82.8058999 C55.8146587,83.8644981 53.3445963,84.6878522 50.1688019,84.6878522 C47.2282514,84.6878522 44.7581891,83.8644981 44.6405671,82.923522 L44.6405671,82.8058999 L44.6405671,52.4594196 C44.6405671,27.40593 64.63631,7.05732102 89.3369335,7.05732102 C114.037557,7.05732102 134.0333,27.40593 134.0333,52.4594196 L134.0333,52.4594196 L134.0333,82.8058999 C134.0333,83.8644981 131.563238,84.6878522 128.387443,84.6878522 C125.211649,84.6878522 122.741586,83.8644981 122.741586,82.8058999 L122.741586,82.8058999 L122.741586,52.4594196 L122.859208,52.4594196 Z" fill="url(#yoe8jzgg5__vna15s3djd)" fill-rule="nonzero" transform="translate(131.04744 10)"/>
    <path d="M52.8741083,52.3417975 C53.2269743,33.1694088 69.3411906,17.6433025 89.3369335,17.6433025 C109.450298,17.6433025 125.799759,33.4046528 125.799759,52.9299076 L122.153476,52.9299076 C122.153476,35.4042271 107.450724,21.1719631 89.3369335,21.1719631 C71.2231429,21.1719631 56.5203908,35.4042271 56.5203908,52.9299076 L56.5203908,81.1591917 L52.8741083,81.1591917 L52.8741083,52.9299076 L52.8741083,52.3417975 Z M125.799759,52.9299076 L125.799759,81.1591917 L122.153476,81.1591917 L122.153476,52.9299076 L125.799759,52.9299076 Z" fill="url(#yoe8jzgg5__dgn9ijgjye)" fill-rule="nonzero" transform="translate(131.04744 10)"/>
    <path d="M50.5216679,79.9829715 C53.6974624,79.9829715 56.2851468,79.0419954 56.4027688,77.7481532 L56.4027688,77.6305312 L56.4027688,82.3354119 C56.4027688,83.6292541 53.8150844,84.6878522 50.5216679,84.6878522 C47.3458735,84.6878522 44.7581891,83.7468761 44.6405671,82.4530339 L44.6405671,82.3354119 L44.6405671,77.6305312 C44.6405671,78.9243734 47.2282514,79.9829715 50.5216679,79.9829715 Z" fill="#DCDEE0" fill-rule="nonzero" transform="translate(131.04744 10)"/>
    <path d="M128.152199,79.9829715 C131.327994,79.9829715 133.915678,79.0419954 134.0333,77.7481532 L134.0333,77.6305312 L134.0333,82.3354119 C134.0333,83.6292541 131.445616,84.6878522 128.152199,84.6878522 C124.976405,84.6878522 122.38872,83.7468761 122.271098,82.4530339 L122.271098,82.3354119 L122.271098,77.6305312 C122.271098,78.9243734 124.858783,79.9829715 128.152199,79.9829715 Z" fill="#DCDEE0" fill-rule="nonzero" transform="translate(131.04744 10)"/>
  </g>
</svg>
