<svg xmlns="http://www.w3.org/2000/svg" viewBox="0 0 440 200" class="design-iconfont">
  <defs>
    <linearGradient x1="51.9445544%" y1="48.7609427%" x2="52.6037065%" y2="51.2467597%" id="0hsl79wf5__15rz4a3g9a">
      <stop stop-color="#FBFCFD" offset="0%"/>
      <stop stop-color="#EDEFF2" stop-opacity=".6" offset="100%"/>
    </linearGradient>
    <linearGradient x1="50%" y1="0%" x2="50%" y2="99.4589316%" id="0hsl79wf5__dxx9yiwfhb">
      <stop stop-color="#ECEEF0" offset="0%"/>
      <stop stop-color="#D7D9DB" offset="100%"/>
    </linearGradient>
    <linearGradient x1="50%" y1="0%" x2="50%" y2="100%" id="0hsl79wf5__wx8zewn1yc">
      <stop stop-color="#F5F7FA" offset="0%"/>
      <stop stop-color="#EBEDF0" offset="100%"/>
    </linearGradient>
    <linearGradient x1="50%" y1="3.83189043%" x2="50%" y2="98.3556799%" id="0hsl79wf5__oew0ixrlwd">
      <stop stop-color="#E1E2E6" offset="0%"/>
      <stop stop-color="#F7F9FC" offset="100%"/>
    </linearGradient>
    <linearGradient x1="50%" y1="1.64695946%" x2="50%" y2="98.3556799%" id="0hsl79wf5__sho5rgmzxe">
      <stop stop-color="#E1E2E6" offset="0%"/>
      <stop stop-color="#F0F2F5" offset="100%"/>
    </linearGradient>
    <linearGradient x1="50%" y1="1.64695946%" x2="50%" y2="98.3556799%" id="0hsl79wf5__w8z7jb5o0f">
      <stop stop-color="#E1E2E6" offset="0%"/>
      <stop stop-color="#F0F2F5" offset="100%"/>
    </linearGradient>
    <linearGradient x1="50%" y1="1.17556896%" x2="50%" y2="94.7658656%" id="0hsl79wf5__f3y7k7ei0g">
      <stop stop-color="#EBEDF0" stop-opacity=".99166849" offset="0%"/>
      <stop stop-color="#E1E3E6" offset="100%"/>
    </linearGradient>
    <linearGradient x1="51.9445544%" y1="37.0380112%" x2="52.6331696%" y2="64.20493%" id="0hsl79wf5__tli75grzqh">
      <stop stop-color="#FBFCFD" offset="0%"/>
      <stop stop-color="#F0F2F5" offset="100%"/>
    </linearGradient>
    <linearGradient x1="50%" y1="1.11116976%" x2="50%" y2="100%" id="0hsl79wf5__9wo3jx7q4i">
      <stop stop-color="#DCDEE5" offset="0%"/>
      <stop stop-color="#979BA5" offset="100%"/>
    </linearGradient>
    <linearGradient x1="38.8495251%" y1="30.2811515%" x2="91.2382244%" y2="35.8433398%" id="0hsl79wf5__zbykjphacj">
      <stop stop-color="#E7E9EB" stop-opacity=".93654393" offset="0%"/>
      <stop stop-color="#CDCFD1" offset="100%"/>
    </linearGradient>
    <linearGradient x1="17.0947827%" y1="44.9943756%" x2="89.4315649%" y2="47.0253001%" id="0hsl79wf5__d0tdnoww6k">
      <stop stop-color="#EBEDEF" offset="0%"/>
      <stop stop-color="#D8DADC" offset="100%"/>
    </linearGradient>
  </defs>
  <g fill="none" fill-rule="evenodd">
    <g transform="translate(92.933875 40.718056)">
      <path d="M42.692075,69.7840221 C70.7336626,63.4342781 111.130963,60.6121697 138.575921,62.0232239 C166.020879,63.4342781 188.699682,68.2226292 190.352744,67.112787 C195.831723,63.4342781 207.521318,61.848939 206.924688,63.2599932 C206.328058,64.6710474 198.835503,69.078495 201.222021,69.7840221 C203.608539,70.4895492 228.07035,73.3116576 238.213051,75.4282389 C248.355753,77.5448202 254.855096,79.6614015 257.094984,79.6614015 C259.334873,79.6614015 262.766514,76.6866672 277.446324,78.0977214 C277.705781,78.6376787 274.19668,78.8332614 270.903145,80.4845748 C267.609609,82.1358882 265.29739,82.0223576 265.29739,82.4345484 C265.29739,82.8467392 267.118117,81.8865804 270.903145,84.3256563 C274.688172,86.7647321 281.416413,87.5442224 281.416413,88.199076 C281.416413,88.8539295 272.893424,91.6338493 258.618827,87.1181749 C255.005599,85.9751542 246.565865,95.8885248 207.784946,98.7106332 C169.004027,101.532742 103.374779,103.649323 103.374779,103.649323 C103.374779,103.649323 107.334008,108.706566 113.072804,110.17412 C113.394179,110.69156 110.796437,112.57375 99.6327328,110.461539 C88.4690284,108.349328 82.4927458,103.649323 82.4927458,103.649323 C82.4927458,103.649323 60.4174534,102.238269 52.0646401,100.827215 C43.7118268,99.4161603 34.1657544,95.8885248 27.6028296,95.1829977 C21.0399049,94.4774706 -8.7915713,90.9498351 2.54438965,83.189037 C2.54438965,83.189037 14.6504874,76.133766 42.692075,69.7840221 Z" fill="url(#0hsl79wf5__15rz4a3g9a)"/>
      <rect fill="url(#0hsl79wf5__dxx9yiwfhb)" x="82.7978175" width="89.3934795" height="89.46238" rx="2"/>
      <rect fill="url(#0hsl79wf5__wx8zewn1yc)" x="88.38491" y="5.59139875" width="78.2192946" height="78.2795825" rx="1"/>
      <rect stroke="url(#0hsl79wf5__oew0ixrlwd)" fill="#F0F2F5" x="102.852641" y="20.0698956" width="49.2838322" height="49.3225888" rx="1"/>
      <path stroke="url(#0hsl79wf5__sho5rgmzxe)" fill="#979BA5" d="M114.423599 33.0483925H119.61391834999999V45.23119H114.423599z"/>
      <path stroke="url(#0hsl79wf5__sho5rgmzxe)" fill="#979BA5" d="M135.375196 33.0483925H140.56551535V45.23119H135.375196z"/>
      <path d="M127.494557,49.8225888 C128.747432,49.8225888 129.885579,50.3141745 130.726922,51.1151229 C131.575221,51.922692 132.121596,53.0448386 132.179735,54.294608 L132.179735,54.294608 L132.185459,59.2096869 L122.804238,59.2096869 L122.804238,54.5046711 C122.864518,53.1603436 123.402396,52.0005206 124.230145,51.1721336 C125.076222,50.3254048 126.226651,49.8225888 127.494557,49.8225888 Z" stroke="url(#0hsl79wf5__w8z7jb5o0f)" fill="#979BA5"/>
      <path d="M236.44286,0 L236.441936,55.913 L250.410592,55.9139875 L250.410592,72.6881838 L236.441936,72.688 L236.44286,89.46238 L216.888037,89.46238 L216.887936,72.688 L180.571936,72.6881838 L180.571936,55.9139875 L216.888037,0 L236.44286,0 Z M216.887936,26.951 L198.846936,55.913 L216.887936,55.913 L216.887936,26.951 Z" fill="url(#0hsl79wf5__f3y7k7ei0g)"/>
      <path d="M60.4494476,0 L60.4485229,55.913 L74.4171788,55.9139875 L74.4171788,72.6881838 L60.4485229,72.688 L60.4494476,89.46238 L40.894624,89.46238 L40.8945229,72.688 L4.57852293,72.6881838 L4.57852293,55.9139875 L40.894624,0 L60.4494476,0 Z M40.8945229,26.951 L22.8535229,55.913 L40.8945229,55.913 L40.8945229,26.951 Z" fill="url(#0hsl79wf5__f3y7k7ei0g)"/>
      <path d="M94.670389,131.397871 C105.855928,131.397871 114.923599,136.717499 114.923599,143.279593 C114.923599,149.841687 105.855928,155.161315 94.670389,155.161315 C90.4606377,155.161315 86.5508702,154.40782 83.311572,153.118179 L76.5698997,158.778838 L74.7742428,156.637208 L80.5427594,151.793284 C76.7640727,149.634863 74.4171788,146.618016 74.4171788,143.279593 C74.4171788,143.050683 74.428213,142.823284 74.4499864,142.597571 L68.8930284,147.430882 L67.0602971,145.320941 L81.8185099,132.481934 L82.8243306,133.641167 C86.1553852,132.229667 90.2473083,131.397871 94.670389,131.397871 Z" fill="url(#0hsl79wf5__tli75grzqh)"/>
      <path fill="#E1E3E6" d="M215.491264 83.8709813H237.8396339V89.46238005H215.491264z"/>
      <path fill="#F0F2F5" d="M216.888037 82.4731316H236.44286069999998V83.87098129H216.888037z"/>
      <path fill="#E1E3E6" d="M39.4978509 83.8709813H61.846220800000005V89.46238005H39.4978509z"/>
      <path fill="#F0F2F5" d="M40.894624 82.4731316H60.4494477V83.87098129H40.894624z"/>
      <path d="M110.051622,129.093634 C112.302451,126.974158 119.337348,125.844265 130.98649,125.844265 C137.106085,125.844265 141.481858,126.522195 169.195366,131.329174 C171.961385,131.808947 174.292517,132.208123 176.523772,132.582565 C201.236745,136.72982 215.590819,138.009383 223.090227,135.788259 L222.693852,134.447875 C215.493995,136.58028 201.197277,135.30583 176.754768,131.203964 C174.526343,130.829996 172.197601,130.43123 169.433897,129.951858 C141.556107,125.116384 137.231721,124.446415 130.98649,124.446415 C118.95426,124.446415 111.713525,125.609369 109.094463,128.075588 L110.051622,129.093634 Z" fill="#F4F4F4" fill-rule="nonzero"/>
      <path d="M215.491264,85.9677558 L196.372651,85.9677558 C189.750527,85.9677558 186.170072,88.9515814 188.67445,93.1787404 C191.27414,97.5667755 200.111861,102.464389 214.586294,106.949955 C229.422795,111.547724 238.426549,121.801625 234.702027,128.452954 C230.352797,136.219896 211.299322,136.931369 180.774026,127.696472 C134.47357,113.689076 108.194856,112.275656 101.743147,123.81718 L102.962136,124.499646 C108.9145,113.851404 134.781982,115.242705 180.369846,129.034519 C211.484103,138.447596 231.117024,137.714486 235.920513,129.136317 C240.226586,121.446444 230.558946,110.436478 214.99946,105.614659 C200.834984,101.225148 192.245173,96.4649189 189.875917,92.4658342 C188.107678,89.48121 190.646307,87.3656055 196.372651,87.3656055 L215.491264,87.3656055 L215.491264,85.9677558 Z" fill="url(#0hsl79wf5__9wo3jx7q4i)" fill-rule="nonzero"/>
      <path d="M104.280474,142.243979 L98.1909615,151.895907 L72.0891234,127.131604 L78.9994966,121.069135 L79.0538965,121.114413 C80.464308,119.988549 82.82105,119.787806 85.4637312,120.269126 L91.0426197,115.065301 L91.1525781,114.941213 C93.2343621,112.714752 98.9115696,113.15946 103.554664,117.055479 C108.194632,120.948875 110.077356,126.841887 108.268785,129.295389 L108.162464,129.430556 L104.054545,135.658511 C105.185185,138.219643 105.46362,140.572228 104.282188,142.157837 L104.240739,142.210354 L104.280474,142.243979 Z" fill="url(#0hsl79wf5__zbykjphacj)" transform="rotate(11 90.518456 132.748572)"/>
      <path d="M90.6897187,123.011966 C99.6136542,123.011966 106.491604,126.961731 107.185737,131.405351 L107.208536,131.405442 L108.703775,142.548181 L72.4669204,141.74729 L73.9895697,131.435493 L74.0456033,131.435475 C74.7446776,127.060997 81.8994152,123.011966 90.6897187,123.011966 Z" fill="url(#0hsl79wf5__d0tdnoww6k)" transform="rotate(51 90.585348 132.780074)"/>
      <path fill="#C7C9CC" transform="rotate(51 83.122726 138.765037)" d="M83.1227263 129.6832377A18.1665035 9.0817993 0 1 0 83.1227263 147.8468363A18.1665035 9.0817993 0 1 0 83.1227263 129.6832377Z"/>
      <path fill="#E5E7E9" d="M11.7149759 1.04942942L11.7149759 5.88655204 1.15646398 16.7899065 1.15646398 11.9743271z" transform="rotate(6 -1296.77966652 795.37593428)"/>
      <path fill="#F0F2F5" d="M11.7149759 1.04942942L10.8224332 -1.08820891e-13 0.24030914 10.6119046 1.15646398 11.9743271z" transform="rotate(6 -1296.77966652 795.37593428)"/>
      <path fill="#ECEEF0" d="M0.24030914 10.6119046L1.15646398 11.9743271 1.15646398 16.7899065 0.24030914 15.4434495z" transform="rotate(6 -1296.77966652 795.37593428)"/>
      <path fill="#E5E7E9" d="M11.7149759 1.04942942L11.7149759 5.88655204 1.15646398 16.7899065 1.15646398 11.9743271z" transform="rotate(6 -1192.97498004 712.44275357)"/>
      <path fill="#F0F2F5" d="M11.7149759 1.04942942L10.8224332 -1.08820891e-13 0.24030914 10.6119046 1.15646398 11.9743271z" transform="rotate(6 -1192.97498004 712.44275357)"/>
      <path fill="#ECEEF0" d="M0.24030914 10.6119046L1.15646398 11.9743271 1.15646398 16.7899065 0.24030914 15.4434495z" transform="rotate(6 -1192.97498004 712.44275357)"/>
    </g>
    <path fill="#C4C6CC" d="M1.6042436 74.9419193A1.6042436 1.6042436 0 1 0 1.6042436 78.1504065A1.6042436 1.6042436 0 1 0 1.6042436 74.9419193Z" transform="translate(2)"/>
    <path d="M118.362042,60.1852286 L117.227948,61.9283213 C61.3516021,75.9483205 24.0793331,95.2446556 26.0711449,111.466661 C27.2415739,120.999041 41.8238845,128.281519 65.3406944,132.684179 C72.9422683,124.476841 82.8711162,115.578228 94.7133969,106.349047 L94.7132531,108.139921 C83.5876987,116.853398 74.2058275,125.239286 66.9272706,132.973676 C75.7561465,134.551918 85.7896418,135.735598 96.802331,136.493016 C98.2577825,137.148065 100.065915,137.726302 102.022971,138.232055 C88.5063123,137.484005 76.3134304,136.114126 65.8143472,134.168686 C52.6926197,148.417265 46.9008448,160.357469 50.7486966,167.909303 C58.974291,184.052941 109.316586,176.345826 172.078909,151.095685 C172.545428,151.388748 173.048211,151.697691 173.581479,152.0119 C109.641333,177.892031 58.2463661,185.705475 49.5023382,168.544354 C45.4445538,160.580504 51.1368447,148.347101 64.2520216,133.872519 C40.591708,129.284413 25.9168787,121.688299 24.6827509,111.637135 C22.5557502,94.3141042 60.9313015,74.4083862 118.362042,60.1852286 Z M299.89099,113.299274 L304.770899,113.298846 C298.298809,115.302378 291.466243,117.235052 284.317033,119.079975 C282.935423,118.889832 281.683698,118.714951 280.612553,118.559031 C287.320095,116.877297 293.757321,115.119058 299.89099,113.299274 Z M270.965484,101.284684 L270.965368,102.938114 C268.212866,104.618141 265.415122,106.295939 262.574411,107.969525 L262.574552,106.335582 C265.415899,104.655277 268.213655,102.970943 270.965484,101.284684 Z M362.338282,9.14647947 C366.845365,17.992128 359.32368,32.1051675 342.962205,48.706091 C361.091929,53.3672089 372.107623,60.1987086 373.169662,68.8483223 C374.389534,78.7833806 362.28722,89.5679419 340.908606,99.642829 L340.906237,98.1311754 C361.356743,88.4562578 372.913582,78.2407542 371.781268,69.0187957 C370.774774,60.8215557 359.850319,54.2880965 341.855137,49.8189913 L341.546251,50.1270806 C337.226688,54.415602 332.332917,58.8622199 326.918556,63.4202017 L326.919633,61.5862657 C331.732645,57.5107386 336.117305,53.5339595 340.033695,49.6918803 L340.289467,49.4395768 C336.172128,48.4660185 331.704771,47.5964203 326.919305,46.8352717 L326.919037,45.4351887 C332.130701,46.2678893 336.977118,47.23079 341.419153,48.3190349 C357.752783,31.9614653 365.36427,18.1664837 361.091923,9.78153076 C351.496793,-9.04997359 284.592831,4.57260165 207.516677,40.6371925 L204.226217,40.6382396 C283.209911,3.23531739 352.086729,-10.9733254 362.338282,9.14647947 Z M131.082815,80.8597792 L131.082053,82.5382733 C125.53959,86.0855802 120.212505,89.630121 115.1225,93.1523494 L117.000999,90.1417964 C121.522655,87.0566386 126.221333,83.9585022 131.082815,80.8597792 Z M307.334686,76.9732287 L307.335114,78.7287857 C303.358316,81.6368448 299.208087,84.5675091 294.896762,87.5100263 L296.774222,84.4996563 C300.418702,81.9769695 303.941515,79.4657662 307.334686,76.9732287 Z M173.047362,56.362562 L173.047498,57.949983 C165.337007,62.0931703 157.86366,66.2978901 150.66491,70.530409 L150.665391,68.8993663 C157.867149,64.6809416 165.339986,60.4913905 173.047362,56.362562 Z M173.047002,49.37966 L173.046152,50.7963121 C165.407063,51.9679915 157.936147,53.2467405 150.666462,54.6191985 L150.664898,53.187234 C157.936584,51.8202067 165.408008,50.5468832 173.047002,49.37966 Z M305.837546,42.9404412 L304.964946,44.2826639 C292.13409,43.2597943 277.876657,42.8359268 262.573206,43.064602 L262.572547,42.6381623 C262.572547,42.280014 262.478408,41.9438532 262.313523,41.6530745 C278.045584,41.4073145 292.686843,41.8530974 305.837546,42.9404412 Z" fill="#EDEEF3" fill-rule="nonzero" transform="translate(2)"/>
    <path d="M362.338282,9.14642913 C366.845362,17.9920726 359.323675,32.1051075 342.962198,48.7060273 C361.09193,53.3671673 372.107624,60.1986623 373.169662,68.8482712 C375.992405,91.8376606 307.482225,119.375671 217.767697,132.144079 C134.60868,173.181848 60.190837,189.521664 49.5023382,168.544304 C45.4445561,160.580458 51.1368491,148.347059 64.2520278,133.872481 C40.5917066,129.284351 25.916878,121.688243 24.6827509,111.637084 C23.0649802,98.4613991 44.8777074,83.7916435 80.6841792,71.2644915 L81.0037264,72.6416138 C45.9281269,84.8967428 24.5500353,99.0781665 26.0711449,111.46661 C27.2415733,120.998984 41.8238832,128.281457 65.3406926,132.684114 C71.846283,125.66011 80.0564373,118.129794 89.7117481,110.319268 L89.9820051,111.480759 L90.7253581,111.309336 C81.3329855,118.886956 73.3191067,126.18151 66.9272767,132.973638 C99.8222577,138.853883 149.439644,139.2569 204.120032,132.542993 C208.576692,131.995784 212.989282,131.410839 217.35189,130.790546 C219.981119,129.491266 222.621416,128.167009 225.26847,126.818268 C274.894435,101.532575 316.162512,73.1100474 340.033688,49.6918168 L340.289468,49.4395388 C337.734379,48.83538 335.044496,48.2712568 332.227445,47.748242 L331.891229,46.2895838 C335.243157,46.9080415 338.423135,47.5850093 341.419155,48.3189974 C357.752779,31.9614057 365.364268,18.1664286 361.091923,9.78148042 C357.037073,1.82338886 342.747646,-0.33884648 321.78103,2.53916669 L321.472858,1.2067832 C343.148704,-1.73686953 357.997929,0.628007121 362.338282,9.14642913 Z M213.322117,132.762977 L212.893958,132.820299 C210.045682,133.20535 207.177282,133.575414 204.290322,133.929888 C149.022001,140.715985 98.9715274,140.312512 65.8143453,134.16862 C52.6926239,148.417223 46.900847,160.357423 50.7486966,167.909253 C60.7154275,187.470063 132.515927,172.014317 213.322117,132.762977 Z M341.855138,49.8189529 L341.546244,50.1270166 C317.600118,73.9010505 276.007446,102.533706 225.902835,128.063281 C224.526456,128.764581 223.151958,129.459308 221.779586,130.147407 C308.543255,117.235156 374.41211,90.4452285 371.781268,69.0187446 C370.774774,60.8215092 359.85032,54.2880544 341.855138,49.8189529 Z" fill-opacity=".03" fill="#343434" fill-rule="nonzero" transform="translate(2)"/>
    <path fill="#C4C6CC" d="M129.408984 135.90317653A2.13899147 2.13899147 0 1 0 129.408984 140.18115947A2.13899147 2.13899147 0 1 0 129.408984 135.90317653Z" transform="translate(2)"/>
    <path fill="#C4C6CC" d="M341.703887 44.99603873A3.74323507 3.74323507 0 1 0 341.703887 52.48250887A3.74323507 3.74323507 0 1 0 341.703887 44.99603873Z" transform="translate(2)"/>
    <path fill="#C4C6CC" d="M41.7103336 87.77586813A2.13899147 2.13899147 0 1 0 41.7103336 92.05385107A2.13899147 2.13899147 0 1 0 41.7103336 87.77586813Z" transform="translate(2)"/>
    <path fill="#C4C6CC" d="M356.14208 1.1467136499999997A2.13899147 2.13899147 0 1 0 356.14208 5.42469659A2.13899147 2.13899147 0 1 0 356.14208 1.1467136499999997Z" transform="translate(2)"/>
    <path fill="#C4C6CC" d="M70.0519706 47.1350302A1.6042436 1.6042436 0 1 0 70.0519706 50.343517399999996A1.6042436 1.6042436 0 1 0 70.0519706 47.1350302Z" transform="translate(2)"/>
    <path fill="#C4C6CC" d="M280.74263 160.5015784A1.6042436 1.6042436 0 1 0 280.74263 163.71006559999998A1.6042436 1.6042436 0 1 0 280.74263 160.5015784Z" transform="translate(2)"/>
    <path fill="#C4C6CC" d="M381.275229 12.911166699999999A1.6042436 1.6042436 0 1 0 381.275229 16.1196539A1.6042436 1.6042436 0 1 0 381.275229 12.911166699999999Z" transform="translate(2)"/>
  </g>
</svg>
