<svg xmlns="http://www.w3.org/2000/svg" viewBox="0 0 440 200" class="design-iconfont">
  <defs>
    <linearGradient x1="51.9445544%" y1="48.770605%" x2="52.6037065%" y2="51.2370372%" id="e4xu4vwqe__9mx5834jfa">
      <stop stop-color="#E8EAED" stop-opacity=".2" offset="0%"/>
      <stop stop-color="#E8EAED" stop-opacity=".6" offset="100%"/>
    </linearGradient>
    <linearGradient x1="49.9945455%" y1="1.17571429%" x2="49.9945455%" y2="94.7657143%" id="e4xu4vwqe__uwjbf89qwb">
      <stop stop-color="#EBEDF0" stop-opacity=".9917" offset="0%"/>
      <stop stop-color="#E1E3E6" offset="100%"/>
    </linearGradient>
    <linearGradient x1="50.0060274%" y1="-.00340206%" x2="50.0060274%" y2="98.8465979%" id="e4xu4vwqe__99kb5js4nc">
      <stop stop-color="#FFF" offset="0%"/>
      <stop stop-color="#F2F4F7" offset="100%"/>
    </linearGradient>
    <linearGradient x1="50.0037209%" y1="-.00333333%" x2="50.0037209%" y2="99.2066667%" id="e4xu4vwqe__dcj0yeva2d">
      <stop stop-color="#EDEFF2" offset="0%"/>
      <stop stop-color="#E8EAED" offset="100%"/>
    </linearGradient>
    <linearGradient x1="50.0031739%" y1="1.22882937%" x2="50.0031739%" y2="94.7625812%" id="e4xu4vwqe__50q3f1uyue">
      <stop stop-color="#E6E8EB" stop-opacity=".9917" offset="0%"/>
      <stop stop-color="#D4D6D9" offset="100%"/>
    </linearGradient>
  </defs>
  <g fill="none" fill-rule="evenodd">
    <path d="M34.526732,140.077748 C58.4515156,134.871319 94.5246348,133.01188 117.953568,134.251506 C141.382501,135.491132 166.794836,138.962085 166.794836,138.962085 C166.794836,138.962085 173.364854,135.986982 172.869004,137.226608 C172.373153,138.342272 169.274088,140.201711 171.381453,140.697561 C173.364854,141.317374 194.314535,143.672664 202.867955,145.408141 C211.545338,147.143617 215.636104,148.879094 215.636104,148.879094 C215.636104,148.879094 221.338384,138.962085 233.858608,140.077748 C233.858608,141.069449 229.271991,142.185113 227.660477,144.788328 C226.172926,147.391542 222.701973,148.879094 222.701973,148.879094 C222.701973,148.879094 225.42915,147.391542 230.015767,149.622869 C234.602383,151.854196 239.065037,152.597972 239.065037,152.96986 C239.065037,153.341748 237.081635,158.176289 220.222721,154.705336 C213.404777,152.96986 210.057787,162.267055 176.95977,164.622345 C143.861753,166.977635 87.9546165,168.713111 87.9546165,168.713111 C87.9546165,168.713111 90.5578313,172.184064 95.6402983,173.42369 C95.6402983,173.42369 92.0453826,176.894643 84.9795139,175.77898 C77.9136452,174.663316 70.2279634,168.713111 70.2279634,168.713111 C70.2279634,168.713111 51.3856468,167.597448 44.3197781,166.357822 C37.2539094,165.118195 29.0723772,162.267055 23.4940598,161.647242 C17.9157424,161.027429 -7.49659252,158.176289 2.17249099,151.730234 C2.04852838,151.730234 10.6019484,145.408141 34.526732,140.077748 Z" fill="url(#e4xu4vwqe__9mx5834jfa)" transform="translate(121.147463 16)"/>
    <path fill="#C4C6CC" fill-rule="nonzero" d="M35.5184329 145.036253L35.5184329 156.440813 46.9229929 156.440813 46.9229929 158.67214 33.2871059 158.67214 33.2871059 145.036253z" transform="translate(121.147463 16)"/>
    <path fill="#C4C6CC" fill-rule="nonzero" d="M41.9644885 2.23132697L30.5599285 2.23132697 30.5599285 13.635887 28.3286015 13.635887 28.3286015 2.23132697 28.3286015 2.23132697 28.3286015 0 41.9644885 0z" transform="translate(121.147463 16)"/>
    <path fill="#C4C6CC" fill-rule="nonzero" d="M155.018388 13.635887L155.018388 2.23132697 143.613828 2.23132697 143.613828 0 155.018388 0 155.018388 0 157.249715 0 157.249715 13.635887z" transform="translate(121.147463 16)"/>
    <path d="M40.7248624,9.91700873 L147.332706,9.91700873 C148.076482,9.91700873 148.572332,10.4128592 148.572332,11.1566348 L148.572332,147.515505 C148.572332,148.259281 148.076482,148.755131 147.332706,148.755131 L40.7248624,148.755131 C39.9810868,148.755131 39.4852364,148.259281 39.4852364,147.515505 L39.4852364,11.1566348 C39.4852364,10.4128592 39.9810868,9.91700873 40.7248624,9.91700873 Z" fill="url(#e4xu4vwqe__uwjbf89qwb)" fill-rule="nonzero" transform="translate(121.147463 16)"/>
    <path fill="url(#e4xu4vwqe__99kb5js4nc)" fill-rule="nonzero" d="M48.162619 18.5943914H138.6553237V138.8381224H48.162619z" transform="translate(121.147463 16)"/>
    <path fill="#DCDEE0" fill-rule="nonzero" d="M66.7570104 23.5528957H120.06093229999999V26.03214788H66.7570104z" transform="translate(121.147463 16)"/>
    <path fill="#D1D3D6" fill-rule="nonzero" d="M48.162619 136.35887H138.6553237V138.83812218H48.162619z" transform="translate(121.147463 16)"/>
    <path fill="url(#e4xu4vwqe__dcj0yeva2d)" fill-rule="nonzero" d="M66.7570104 4.95850437H120.06093229999999V23.55289577H66.7570104z" transform="translate(121.147463 16)"/>
    <path d="M148.572332,92.9719569 L148.572332,147.515505 C148.572332,148.259281 148.076482,148.755131 147.332706,148.755131 L116.837904,148.755131 L148.572332,92.9719569 Z" fill="#D1D3D6" fill-rule="nonzero" transform="translate(121.147463 16)"/>
    <path fill="#E5E7EC" fill-rule="nonzero" d="M138.655324 110.574647L138.655324 136.35887 123.779811 136.35887z" transform="translate(121.147463 16)"/>
    <path d="M158.117453,89.3770412 L159.976892,92.600069 L159.976892,92.600069 L194.810386,154.953261 C195.430199,156.192888 195.058311,157.680439 193.818685,158.300252 C193.446797,158.548177 193.074909,158.67214 192.579059,158.67214 L119.193194,158.67214 C117.829605,158.67214 116.713942,157.556476 116.713942,156.192888 C116.713942,155.821 116.837904,155.325149 117.08583,154.953261 L153.778762,89.3770412 C154.398575,88.1374151 156.010089,87.7655273 157.125752,88.3853403 C157.621603,88.6332656 157.993491,89.0051534 158.117453,89.3770412 Z" fill="url(#e4xu4vwqe__50q3f1uyue)" fill-rule="nonzero" transform="translate(121.147463 16)"/>
    <path d="M159.357079,116.524853 L158.613304,136.854721 L153.406874,136.854721 L152.663099,116.524853 C152.663099,116.524853 159.357079,116.524853 159.357079,116.524853 Z M152.291211,143.548701 C152.291211,142.433038 152.663099,141.5653 153.406874,140.821524 C154.15065,140.077748 155.018388,139.829823 156.010089,139.829823 C157.125752,139.829823 157.993491,140.201711 158.613304,140.821524 C159.357079,141.5653 159.605005,142.433038 159.605005,143.424739 C159.605005,144.41644 159.233117,145.408141 158.613304,146.027954 C157.869528,146.771729 157.125752,147.143617 156.134052,147.143617 C154.894425,147.143617 154.026687,146.771729 153.282912,146.027954 C152.663099,145.408141 152.291211,144.540402 152.291211,143.548701 Z" fill="#979BA5" fill-rule="nonzero" transform="translate(121.147463 16)"/>
    <g fill="#C4C6CC" fill-rule="nonzero">
      <path d="M0 0H4.71057915V1.23962609H0z" transform="translate(206.498865 70.543548)"/>
      <path d="M9.4211583 0H14.13173745V1.23962609H9.4211583z" transform="translate(206.498865 70.543548)"/>
      <path d="M18.718354 0H23.428933150000002V1.23962609H18.718354z" transform="translate(206.498865 70.543548)"/>
      <path d="M28.1395123 0H32.85009145V1.23962609H28.1395123z" transform="translate(206.498865 70.543548)"/>
      <path d="M37.436708 0H42.147287150000004V1.23962609H37.436708z" transform="translate(206.498865 70.543548)"/>
    </g>
    <g fill="#C4C6CC" fill-rule="nonzero">
      <path d="M9.66908352 0H14.503625279999998V1.23962609H9.66908352z" transform="translate(235.010265 91.617192)"/>
      <path d="M0 0H4.83454176V1.23962609H0z" transform="translate(235.010265 91.617192)"/>
      <path d="M19.338167 0H24.17270876V1.23962609H19.338167z" transform="translate(235.010265 91.617192)"/>
      <path d="M29.1312132 0H33.96575496V1.23962609H29.1312132z" transform="translate(235.010265 91.617192)"/>
      <path d="M38.8002967 0H43.63483846V1.23962609H38.8002967z" transform="translate(235.010265 91.617192)"/>
      <path d="M48.4693802 0H53.303921960000004V1.23962609H48.4693802z" transform="translate(235.010265 91.617192)"/>
    </g>
  </g>
</svg>
