<svg xmlns="http://www.w3.org/2000/svg" viewBox="0 0 440 200" class="design-iconfont">
  <defs>
    <linearGradient x1="51.9445544%" y1="48.7601878%" x2="52.6037065%" y2="51.2475192%" id="bcdoi4jzg__44px8r3vwa">
      <stop stop-color="#E8EAED" stop-opacity=".2" offset="0%"/>
      <stop stop-color="#E8EAED" stop-opacity=".6" offset="100%"/>
    </linearGradient>
    <linearGradient x1="49.9978471%" y1=".31772768%" x2="49.9978471%" y2="100.026767%" id="bcdoi4jzg__gwodyocyvb">
      <stop stop-color="#EAECEE" offset="0%"/>
      <stop stop-color="#CDCFD1" offset="100%"/>
    </linearGradient>
    <linearGradient x1="50.0077182%" y1=".00222048%" x2="50.0077182%" y2="99.9951355%" id="bcdoi4jzg__27pn01ep6c">
      <stop stop-color="#DCDEE5" offset="0%"/>
      <stop stop-color="#B2B5BE" offset="100%"/>
    </linearGradient>
    <linearGradient x1="50.0029682%" y1=".00222048%" x2="50.0029682%" y2="99.9951355%" id="bcdoi4jzg__qa9u5kvl4d">
      <stop stop-color="#DCDEE5" offset="0%"/>
      <stop stop-color="#B2B5BE" offset="100%"/>
    </linearGradient>
    <linearGradient x1="50.5222521%" y1="32.0112588%" x2="50.5222736%" y2="129.955735%" id="bcdoi4jzg__u1b622gspe">
      <stop stop-color="#E4E6E9" offset="0%"/>
      <stop stop-color="#CBCED6" offset="100%"/>
    </linearGradient>
    <linearGradient x1="69.0187815%" y1="41.1029931%" x2="69.0187381%" y2="141.098217%" id="bcdoi4jzg__kh7v7n94af">
      <stop stop-color="#EBEDF0" offset="0%"/>
      <stop stop-color="#E4E6E9" offset="100%"/>
    </linearGradient>
    <linearGradient x1="52.6172362%" y1="2.55611538%" x2="47.2352844%" y2="100.003592%" id="bcdoi4jzg__4mn5nz52ig">
      <stop stop-color="#EAEDF0" offset="0%"/>
      <stop stop-color="#E7E7EB" offset="100%"/>
    </linearGradient>
    <linearGradient x1="96.3267905%" y1="37.7516011%" x2="1.9408987%" y2="64.9593889%" id="bcdoi4jzg__30uon3b14h">
      <stop stop-color="#EFF2F5" offset="0%"/>
      <stop stop-color="#E7E7EB" offset="100%"/>
    </linearGradient>
    <linearGradient x1="49.9987885%" y1=".44584758%" x2="49.9987885%" y2="100.721605%" id="bcdoi4jzg__u7qn5pdwyi">
      <stop stop-color="#E7E8EB" offset="0%"/>
      <stop stop-color="#CACDD1" offset="100%"/>
    </linearGradient>
    <linearGradient x1="49.9981902%" y1="-.00107588%" x2="49.9981902%" y2="99.7702809%" id="bcdoi4jzg__9osrjzxdaj">
      <stop stop-color="#E3E5E8" offset="0%"/>
      <stop stop-color="#CDCED1" offset="97.13%"/>
    </linearGradient>
    <linearGradient x1="49.9987662%" y1=".00130834%" x2="49.9987662%" y2="99.1240496%" id="bcdoi4jzg__47kfnvbtdk">
      <stop stop-color="#F3F3F5" offset="1.187711%"/>
      <stop stop-color="#E1E3E6" offset="100%"/>
    </linearGradient>
    <linearGradient x1="50.001191%" y1="1.28095644%" x2="50.001191%" y2="99.2240221%" id="bcdoi4jzg__ovac8z99cl">
      <stop stop-color="#E4E7EB" offset="0%"/>
      <stop stop-color="#D8DADC" offset="100%"/>
    </linearGradient>
    <linearGradient x1="18.6682659%" y1="48.8583035%" x2="71.6312464%" y2="50.7963537%" id="bcdoi4jzg__erkxzbxa7m">
      <stop stop-color="#D5D8DF" offset="0%"/>
      <stop stop-color="#B5B8C1" offset="100%"/>
    </linearGradient>
    <linearGradient x1="14.7302816%" y1="50.0001725%" x2="85.546836%" y2="50.0001725%" id="bcdoi4jzg__z7eu8n9lln">
      <stop stop-color="#EFF0F2" offset="0%"/>
      <stop stop-color="#F4F5F7" offset="47.24%"/>
      <stop stop-color="#EEF0F2" offset="100%"/>
    </linearGradient>
    <linearGradient x1="14.7302816%" y1="49.9963032%" x2="85.546836%" y2="49.9963032%" id="bcdoi4jzg__njwnumrxdo">
      <stop stop-color="#EFF0F2" offset="0%"/>
      <stop stop-color="#F4F5F7" offset="47.24%"/>
      <stop stop-color="#EEF0F2" offset="100%"/>
    </linearGradient>
    <linearGradient x1="50.0050807%" y1="33.8009386%" x2="50.0050807%" y2="66.6240741%" id="bcdoi4jzg__ivbkcr66mp">
      <stop stop-color="#D7D8DB" offset="0%"/>
      <stop stop-color="#D0D3D6" offset="100%"/>
    </linearGradient>
    <linearGradient x1="50.0049688%" y1="20.3021511%" x2="50.0049688%" y2="77.2006869%" id="bcdoi4jzg__bnx5i0umhq">
      <stop stop-color="#CDCED1" offset="0%"/>
      <stop stop-color="#EEEFF1" offset="100%"/>
    </linearGradient>
    <linearGradient x1="49.9989432%" y1="-.12747701%" x2="49.9989432%" y2="99.5978081%" id="bcdoi4jzg__5pvcxalppr">
      <stop stop-color="#F0F1F2" offset="0%"/>
      <stop stop-color="#E6E8EB" offset="100%"/>
    </linearGradient>
    <linearGradient x1="50.0062594%" y1="-.1693828%" x2="50.0062594%" y2="99.6523367%" id="bcdoi4jzg__kv5gd5tzxs">
      <stop stop-color="#E6E8EB" offset="0%"/>
      <stop stop-color="#D7D9DC" offset="100%"/>
    </linearGradient>
    <linearGradient x1="49.9936053%" y1="-.21880762%" x2="49.9936053%" y2="99.5792876%" id="bcdoi4jzg__ywv3uibtft">
      <stop stop-color="#E6E8EB" offset="0%"/>
      <stop stop-color="#D7D9DC" offset="100%"/>
    </linearGradient>
  </defs>
  <g fill="none" fill-rule="evenodd">
    <path d="M183.175342,167.793812 C202.281728,163.479467 229.914082,161.52774 248.609577,162.554965 C267.305073,163.479467 282.816171,166.766587 283.946119,166.04753 C287.644129,163.58219 295.656484,162.452242 295.245594,163.376745 C294.834704,164.301247 289.698579,167.382922 291.342139,167.793812 C292.985699,168.204702 309.626745,170.15643 316.611875,171.594545 C323.494283,173.03266 328.014073,174.470775 329.452188,174.470775 C330.993026,174.470775 333.355643,172.416325 343.319726,173.44355 C343.525171,173.85444 341.059831,173.957163 338.902659,175.08711 C336.642763,176.217058 335.101926,176.114335 335.101926,176.422503 C335.101926,176.73067 336.334596,176.011613 338.902659,177.757895 C341.470721,179.401455 346.093234,179.915068 346.093234,180.42868 C346.093234,180.83957 340.238051,182.791298 330.582136,179.709623 C328.116796,178.887843 322.364335,185.667528 295.861929,187.619256 C269.359523,189.570983 224.572511,191.009098 224.572511,191.009098 C224.572511,191.009098 227.243296,194.501663 231.146752,195.426166 C231.352197,195.734333 229.605914,197.069726 222.004449,195.631611 C214.402983,194.193496 210.294083,191.009098 210.294083,191.009098 C210.294083,191.009098 195.193875,190.084596 189.544137,189.057371 C183.791677,188.132868 177.320159,185.667528 172.800369,185.256638 C168.280579,184.845748 147.941523,182.380408 155.645711,177.038838 C155.748433,176.936115 163.966234,172.108157 183.175342,167.793812 Z" fill="url(#bcdoi4jzg__44px8r3vwa)"/>
    <g fill-rule="nonzero">
      <path d="M14.4088133,101.647838 C17.5088133,101.647838 21.6088133,95.1478376 21.6088133,91.1478376 C21.6088133,87.1478376 18.4088133,83.9478376 14.4088133,83.9478376 C10.4088133,83.9478376 7.30881334,87.2478376 7.30881334,91.1478376 C7.30881334,95.1478376 11.3088133,101.647838 14.4088133,101.647838 Z" fill="url(#bcdoi4jzg__gwodyocyvb)" transform="translate(76.791187)"/>
      <path fill="url(#bcdoi4jzg__27pn01ep6c)" d="M11.7088133 11.2478376H12.808813299999999V90.6478376H11.7088133z" transform="translate(76.791187)"/>
      <path fill="url(#bcdoi4jzg__qa9u5kvl4d)" d="M15.0088133 11.2478376H16.1088133V90.6478376H15.0088133z" transform="translate(76.791187)"/>
      <path d="M24.5,0 L24.5,102.7 L24.5,116.7 L24.5,129.5 L0,129.5 L0,0 L24.5,0 Z M12.3,123.1 L2.3,128.4 L22.4,128.4 L12.3,123.1 Z M23.3,117.3 L13.5,122.4 L23.3,127.5 L23.3,117.3 Z M1.2,117.3 L1.2,127.6 L11,122.5 L1.2,117.3 Z M22,116.7 L2.5,116.7 L12.2,121.8 L22,116.7 Z M12.3,110.4 L2.6,115.5 L22,115.5 L12.3,110.4 Z M1.2,104.6 L1.2,114.9 L11,109.8 L1.2,104.6 Z M23.3,104.6 L13.5,109.7 L23.3,114.8 L23.3,104.6 Z M22.3,103.9 L2.2,103.9 L12.2,109.2 L22.3,103.9 Z M12.3,97.5 L2.3,102.8 L22.4,102.8 L12.3,97.5 Z M1.2,91.6 L1.2,101.9 L11,96.8 L1.2,91.6 Z M23.3,91.6 L13.5,96.7 L23.3,101.8 L23.3,91.6 Z M22,91 L2.5,91 L12.2,96.1 L22,91 Z M12.3,84.8 L2.6,89.9 L22.1,89.9 L12.3,84.8 Z M1.2,79 L1.2,89.3 L11,84.2 L1.2,79 Z M23.3,79 L13.5,84.1 L23.3,89.2 L23.3,79 Z M22.3,78.2 L2.2,78.2 L12.2,83.5 L22.3,78.2 Z M12.3,71.8 L2.2,77 L22.3,77 L12.3,71.8 Z M1.2,66 L1.2,76.3 L11,71.2 L1.2,66 Z M23.3,66 L13.5,71.1 L23.3,76.2 L23.3,66 Z M22,65.4 L2.5,65.4 L12.2,70.5 L22,65.4 Z M12.3,59.1 L2.6,64.2 L22.1,64.2 L12.3,59.1 Z M1.2,53.3 L1.2,63.6 L11,58.5 L1.2,53.3 Z M23.3,53.3 L13.5,58.4 L23.3,63.5 L23.3,53.3 Z M22.3,52.5 L2.2,52.5 L12.2,57.8 L22.3,52.5 Z M12.3,46.1 L2.3,51.4 L22.4,51.4 L12.3,46.1 Z M23.3,40.3 L13.5,45.4 L23.3,50.5 L23.3,40.3 Z M1.2,40.3 L1.2,50.6 L11,45.5 L1.2,40.3 Z M22,39.7 L2.5,39.7 L12.2,44.8 L22,39.7 Z M12.3,33.4 L2.6,38.5 L22.1,38.5 L12.3,33.4 Z M1.2,27.6 L1.2,37.9 L11,32.8 L1.2,27.6 Z M23.3,27.6 L13.5,32.7 L23.3,37.8 L23.3,27.6 Z M22.3,26.8 L2.2,26.8 L12.2,32.1 L22.3,26.8 Z M12.3,20.4 L2.3,25.7 L22.4,25.7 L12.3,20.4 Z M1.2,14.6 L1.2,24.9 L11,19.8 L1.2,14.6 Z M23.3,14.6 L13.5,19.7 L23.3,24.8 L23.3,14.6 Z M22,14 L2.5,14 L12.2,19.1 L22,14 Z M12.3,7.7 L2.6,12.8 L22.1,12.8 L12.3,7.7 Z M1.2,1.9 L1.2,12.2 L11,7.1 L1.2,1.9 Z M23.3,1.9 L13.5,7 L23.3,12.1 L23.3,1.9 Z M22.3,1.2 L2.2,1.2 L12.2,6.5 L22.3,1.2 Z" transform="rotate(-39 117.81328374 -120.81608021)" fill="url(#bcdoi4jzg__u1b622gspe)"/>
      <path fill="#EAECEF" transform="rotate(-180 51.27033393 9.3341737)" d="M12.3549 1.9272990600000002A4.09980094 4.09980094 0 1 0 12.3549 10.126900939999999A4.09980094 4.09980094 0 1 0 12.3549 1.9272990600000002Z"/>
      <path fill="url(#bcdoi4jzg__kh7v7n94af)" d="M7 7.8L17.5 7.8 22.2 39.3 2.3 39.3z" transform="rotate(-39 60.60991862 -100.55930621)"/>
      <path fill="#F4F4F5" d="M0 40.5L2.3 39.3 22.2 39.3 24.5 40.5z" transform="rotate(-39 60.60991862 -100.55930621)"/>
      <path fill="#F9F9FA" d="M8.2 7.8L8.2 6.6 16.3 6.6 16.3 7.8z" transform="rotate(-39 60.60991862 -100.55930621)"/>
      <path d="M13.9088133,100.547838 L13.9088133,107.747838 L13.9088133,107.847838 C13.7088133,107.847838 13.5088133,107.747838 13.3088133,107.747838 C11.8088133,107.747838 10.5088133,109.047838 10.5088133,110.747838 C10.5088133,112.447838 11.7088133,113.747838 13.3088133,113.747838 C14.6088133,113.747838 15.8088133,112.747838 16.0088133,111.347838 L17.1088133,111.347838 C16.8088133,113.347838 15.2088133,114.947838 13.3088133,114.947838 C11.2088133,114.947838 9.40881334,113.047838 9.40881334,110.747838 C9.40881334,108.647838 10.8088133,106.947838 12.7088133,106.647838 L12.7088133,100.647838 L13.9088133,100.547838 L13.9088133,100.547838 Z" fill="#979797" transform="translate(76.791187)"/>
      <path d="M13.3088133,101.647838 C16.4088133,101.647838 20.5088133,95.1478376 20.5088133,91.1478376 C20.5088133,87.1478376 17.3088133,83.9478376 13.3088133,83.9478376 C9.30881334,83.9478376 6.20881334,87.2478376 6.20881334,91.1478376 C6.20881334,95.1478376 10.2088133,101.647838 13.3088133,101.647838 Z" fill="#E8EAEC" transform="translate(76.791187)"/>
      <path fill="#F7F8FA" d="M124.008813 122.647838H226.408813V124.847838H124.008813z" transform="translate(76.791187)"/>
      <path d="M192.508813,55.3478376 L195.908813,56.0478376 L181.308813,124.547838 C180.608813,124.647838 180.008813,124.647838 179.408813,124.547838 C178.908813,124.447838 178.308813,124.147838 177.908813,123.847838 L192.508813,55.3478376 Z" fill="url(#bcdoi4jzg__4mn5nz52ig)" transform="translate(76.791187)"/>
      <path d="M238.608813,101.547838 L240.208813,104.647838 L200.708813,125.347838 C200.308813,125.347838 199.508813,125.247838 198.308813,125.047838 C197.108813,124.847838 196.408813,124.447838 196.308813,124.047838 L238.608813,101.547838 Z" fill="url(#bcdoi4jzg__30uon3b14h)" transform="translate(76.791187)"/>
      <path d="M234.608813,103.847838 L232.908813,104.547838 C232.908813,104.947838 233.108813,105.447838 233.508813,106.047838 C233.908813,106.547838 234.308813,106.947838 234.808813,107.147838 L236.208813,106.547838 L234.608813,103.847838 Z" fill="url(#bcdoi4jzg__u7qn5pdwyi)" transform="translate(76.791187)"/>
      <path fill="url(#bcdoi4jzg__9osrjzxdaj)" d="M142.708813 138.047838H226.408813V157.94783800000002H142.708813z" transform="translate(76.791187)"/>
      <path d="M141.608813,157.947838 L151.808813,157.947838 C151.708813,154.847838 153.808813,152.747838 158.208813,151.647838 C162.608813,150.547838 185.308813,147.947838 226.408813,143.747838 L226.408813,140.647838 L226.408813,131.447838 L141.608813,131.447838 L141.608813,157.947838 L141.608813,157.947838 Z" fill="#DCDDE0" transform="translate(76.791187)"/>
      <path d="M226.408813,124.847838 L105.308813,124.847838 L105.308813,157.947838 L145.208813,157.947838 C146.208813,153.847838 148.008813,151.347838 150.608813,150.447838 C153.208813,149.547838 178.508813,147.247838 226.508813,143.547838 L226.408813,124.847838 L226.408813,124.847838 Z" fill="url(#bcdoi4jzg__47kfnvbtdk)" transform="translate(76.791187)"/>
      <path d="M146.008813,124.847838 L146.008813,150.447838 C146.008813,151.447838 145.308813,152.247838 144.408813,152.447838 L113.908813,157.947838 L105.308813,157.947838 L105.308813,124.847838 L146.008813,124.847838 Z" fill="url(#bcdoi4jzg__ovac8z99cl)" transform="translate(76.791187)"/>
      <path fill="#CDCED1" d="M130.608813 157.947838H168.008813V160.14783799999998H130.608813z" transform="translate(76.791187)"/>
      <path fill="url(#bcdoi4jzg__erkxzbxa7m)" d="M238.108813 103.047838L193.808813 55.4478376 19.3088133 13.9478376 19.5088133 12.9478376 194.408813 54.4478376 194.508813 54.6478376 238.908813 102.447838z" transform="translate(76.791187)"/>
      <path d="M191.108813,61.1478376 C191.508813,61.4478376 192.008813,61.6478376 192.508813,61.8478376 C193.008813,62.0478376 193.508813,62.0478376 194.108813,61.9478376 L194.408813,60.5478376 L191.408813,59.7478376 L191.108813,61.1478376 Z" fill="#C6C7CB" transform="translate(76.791187)"/>
      <path fill="#D1D2D6" d="M6.2 1.5999999999999996A4.5 4.5 0 1 0 6.2 10.6A4.5 4.5 0 1 0 6.2 1.5999999999999996Z" transform="translate(265 49.247838)"/>
      <path d="M6.2,11.6 C3.2,11.6 0.7,9.1 0.7,6.1 C0.7,3.1 3.2,0.6 6.2,0.6 C9.2,0.6 11.7,3.1 11.7,6.1 C11.7,9.1 9.2,11.6 6.2,11.6 Z M6.2,2.6 C4.3,2.6 2.7,4.2 2.7,6.1 C2.7,8 4.3,9.6 6.2,9.6 C8.1,9.6 9.7,8 9.7,6.1 C9.7,4.2 8.1,2.6 6.2,2.6 Z" fill="#EAEDF0" transform="translate(265 49.247838)"/>
      <path fill="#F9FAFC" d="M124.008813 124.847838H226.408813V125.94783799999999H124.008813z" transform="translate(76.791187)"/>
      <path fill="url(#bcdoi4jzg__z7eu8n9lln)" d="M225.308813 118.247838H251.708813V160.147838H225.308813z" transform="translate(76.791187)"/>
      <path fill="#F1F3F5" d="M224.208813 122.647838H225.308813V125.94783799999999H224.208813z" transform="translate(76.791187)"/>
      <path fill="#E6E8EB" d="M224.208813 125.947838H225.308813V143.547838H224.208813z" transform="translate(76.791187)"/>
      <path fill="#D1D2D6" d="M224.208813 143.547838H225.308813V157.84783800000002H224.208813z" transform="translate(76.791187)"/>
      <path fill="#F9FAFC" d="M238.508813 116.047838A13.2 2.2 0 1 0 238.508813 120.447838A13.2 2.2 0 1 0 238.508813 116.047838Z" transform="translate(76.791187)"/>
      <path fill="url(#bcdoi4jzg__njwnumrxdo)" d="M238.508813 157.94783800000002A13.2 2.2 0 1 0 238.508813 162.347838A13.2 2.2 0 1 0 238.508813 157.94783800000002Z" transform="translate(76.791187)"/>
      <path d="M237.408813,107.147838 L240.708813,107.147838 L240.708813,117.647838 C240.108813,117.947838 239.608813,118.147838 239.008813,118.147838 C238.408813,118.147838 237.908813,117.947838 237.308813,117.647838 L237.408813,107.147838 L237.408813,107.147838 Z" fill="#EEEFF3" transform="translate(76.791187)"/>
      <path d="M237.408813,107.247838 L237.408813,108.947838 C237.808813,109.247838 238.408813,109.347838 239.108813,109.347838 C239.808813,109.347838 240.308813,109.247838 240.808813,108.947838 L240.808813,107.147838 L237.408813,107.247838 Z" fill="#D4D6DA" transform="translate(76.791187)"/>
      <g>
        <path fill="#D1D2D6" d="M6.3 1.0999999999999996A4.5 4.5 0 1 0 6.3 10.1A4.5 4.5 0 1 0 6.3 1.0999999999999996Z" transform="translate(309 98.247838)"/>
        <path d="M6.3,11.1 C3.3,11.1 0.8,8.6 0.8,5.6 C0.8,2.6 3.3,0.1 6.3,0.1 C9.3,0.1 11.8,2.6 11.8,5.6 C11.8,8.6 9.3,11.1 6.3,11.1 Z M6.3,2.1 C4.4,2.1 2.8,3.7 2.8,5.6 C2.8,7.5 4.4,9.1 6.3,9.1 C8.2,9.1 9.8,7.5 9.8,5.6 C9.8,3.7 8.2,2.1 6.3,2.1 Z" fill="#EAEDF0" transform="translate(309 98.247838)"/>
      </g>
      <g>
        <path fill="#E8EAED" d="M10.1 1.3000000000000007A8.8 8.7 0 1 0 10.1 18.7A8.8 8.7 0 1 0 10.1 1.3000000000000007Z" transform="translate(148.937516 161.118432)"/>
        <path d="M10.1,19.2 C5,19.2 0.8,15.1 0.8,10 C0.8,4.9 5,0.8 10.1,0.8 C15.2,0.8 19.4,4.9 19.4,10 C19.4,15.1 15.2,19.2 10.1,19.2 Z M10.1,1.8 C5.5,1.8 1.8,5.5 1.8,10 C1.8,14.5 5.5,18.2 10.1,18.2 C14.7,18.2 18.4,14.5 18.4,10 C18.4,5.5 14.7,1.8 10.1,1.8 Z" fill="#D9DBDE" transform="translate(148.937516 161.118432)"/>
        <path fill="#E8EAED" d="M9.9 1.3000000000000007A8.8 8.7 0 1 0 9.9 18.7A8.8 8.7 0 1 0 9.9 1.3000000000000007Z" transform="translate(279.937516 161.118432)"/>
        <path d="M9.9,19.2 C4.8,19.2 0.6,15.1 0.6,10 C0.6,4.9 4.8,0.8 9.9,0.8 C15,0.8 19.2,4.9 19.2,10 C19.2,15.1 15,19.2 9.9,19.2 Z M9.9,1.8 C5.3,1.8 1.6,5.5 1.6,10 C1.6,14.5 5.3,18.2 9.9,18.2 C14.5,18.2 18.2,14.5 18.2,10 C18.2,5.5 14.5,1.8 9.9,1.8 Z" fill="#D9DBDE" transform="translate(279.937516 161.118432)"/>
        <path d="M2.1,0.9 L9.1,0.9 C9.8,0.9 10.3,1.5 10.3,2.1 L10.3,2.1 C10.3,2.8 9.7,3.3 9.1,3.3 L2.1,3.3 C1.4,3.3 0.9,2.7 0.9,2.1 L0.9,2.1 C0.8,1.5 1.4,0.9 2.1,0.9 Z" fill="#D8D8D8" transform="translate(156.937516 170.118432)"/>
        <path d="M9.1,3.8 L2.1,3.8 C1.1,3.8 0.4,2.9 0.4,2.1 C0.3,1.8 0.5,1.4 0.8,1 C1.1,0.6 1.6,0.4 2.1,0.4 L9.1,0.4 C10.1,0.4 10.8,1.3 10.8,2.1 C10.8,3.1 9.9,3.8 9.1,3.8 Z M2.1,1.4 C1.9,1.4 1.7,1.5 1.5,1.7 C1.4,1.8 1.4,1.9 1.4,2 C1.4,2.4 1.7,2.8 2.1,2.8 L9.1,2.8 C9.4,2.8 9.8,2.5 9.8,2.1 C9.8,1.8 9.5,1.4 9.1,1.4 C9.1,1.4 2.1,1.4 2.1,1.4 Z" fill="#CFD0D3" transform="translate(156.937516 170.118432)"/>
        <path d="M1.9,0.9 L8.9,0.9 C9.6,0.9 10.1,1.5 10.1,2.1 L10.1,2.1 C10.1,2.8 9.5,3.3 8.9,3.3 L1.9,3.3 C1.2,3.3 0.7,2.7 0.7,2.1 L0.7,2.1 C0.7,1.5 1.3,0.9 1.9,0.9 Z" fill="#D8D8D8" transform="translate(280.937516 170.118432)"/>
        <path d="M8.9,3.8 L1.9,3.8 C0.9,3.8 0.2,2.9 0.2,2.1 C0.2,1.2 1,0.4 1.9,0.4 L8.9,0.4 C9.9,0.4 10.6,1.3 10.6,2.1 C10.6,3.1 9.7,3.8 8.9,3.8 Z M1.9,1.4 C1.6,1.4 1.2,1.8 1.2,2.1 C1.2,2.4 1.5,2.8 1.9,2.8 L8.9,2.8 C9.2,2.8 9.6,2.5 9.6,2.1 C9.6,1.8 9.3,1.4 8.9,1.4 L1.9,1.4 Z" fill="#CFD0D3" transform="translate(280.937516 170.118432)"/>
        <path d="M10.9,9.8 L142.2,9.8 C143,9.8 143.7,10.5 143.7,11.3 L143.7,11.8 C143.7,12.6 143,13.3 142.2,13.3 L10.9,13.3 C10.1,13.3 9.4,12.6 9.4,11.8 L9.4,11.3 C9.4,10.5 10.1,9.8 10.9,9.8 Z" fill="#DDDEE0" transform="translate(147.937516 160.118432)"/>
        <path d="M142.2,9.8 C142.9,9.8 143.5,10.3 143.7,11 L9.4,11 C9.6,10.3 10.1,9.8 10.9,9.8 L142.2,9.8 Z" fill="#EEF0F2" transform="translate(147.937516 160.118432)"/>
        <path d="M142.5,22.1 L10.5,22.1 C4.7,22.1 0,17.4 0,11.6 L0,10.5 C0,4.7 4.7,0 10.5,0 L142.5,0 C148.3,0 153,4.7 153,10.5 L153,11.6 C153,17.4 148.3,22.1 142.5,22.1 Z M10.5,2 C5.8,2 2,5.8 2,10.5 L2,11.6 C2,16.3 5.8,20.1 10.5,20.1 L142.5,20.1 C147.2,20.1 151,16.3 151,11.6 L151,10.5 C151,5.8 147.2,2 142.5,2 L10.5,2 Z" fill="url(#bcdoi4jzg__ivbkcr66mp)" transform="translate(147.937516 160.118432)"/>
        <path d="M143,19.8 L10.1,19.8 C5.8,19.8 2.2,16.3 2.2,12 L2.2,10.1 C2.2,5.7 5.6,2.3 10.1,2.3 L143,2.3 C147.3,2.3 150.8,5.8 150.8,10.1 L150.8,12 C150.8,16.3 147.3,19.8 143,19.8 Z M10.1,2.9 C6.1,2.9 3,6 3,10.1 L3,12 C3,15.9 6.3,19.2 10.1,19.2 L143,19.2 C146.9,19.2 150.2,15.9 150.2,12 L150.2,10.1 C150.2,6.2 146.9,2.9 143,2.9 C143,2.9 10.1,2.9 10.1,2.9 Z" fill="url(#bcdoi4jzg__bnx5i0umhq)" transform="translate(147.937516 160.118432)"/>
      </g>
      <path d="M117.108813,117.147838 L142.908813,117.147838 C144.008813,117.147838 144.908813,118.047838 144.908813,119.147838 L144.908813,148.847838 C144.908813,149.847838 144.208813,150.647838 143.308813,150.847838 L105.508813,157.647838 C104.408813,157.847838 103.408813,157.147838 103.208813,156.047838 C103.208813,155.947838 103.208813,155.847838 103.208813,155.647838 L103.208813,131.247838 C103.108813,123.347838 109.308813,117.147838 117.108813,117.147838 Z" fill="url(#bcdoi4jzg__5pvcxalppr)" transform="translate(76.791187)"/>
      <path d="M116.408813,120.447838 L125.108813,120.447838 L125.108813,120.447838 L125.108813,141.347838 L106.408813,142.547838 L106.408813,130.447838 C106.408813,124.847838 110.808813,120.447838 116.408813,120.447838 Z" fill="url(#bcdoi4jzg__kv5gd5tzxs)" transform="translate(76.791187)"/>
      <path d="M127.308813,120.447838 L140.608813,120.447838 C141.208813,120.447838 141.608813,120.847838 141.608813,121.447838 L141.608813,140.247838 L141.608813,140.247838 L127.308813,141.447838 C127.308813,141.447838 127.308813,120.447838 127.308813,120.447838 Z" fill="url(#bcdoi4jzg__ywv3uibtft)" transform="translate(76.791187)"/>
    </g>
    <path d="M233.2,171.047838 C320.7,163.347838 390,138.047838 387.9,114.347838 C385.8,90.7478376 313.2,77.7478376 225.7,85.3478376 C138.2,92.9478376 69,118.447838 71,142.147838 C73,165.847838 145.7,178.747838 233.2,171.047838 Z M233.2,170.047838 C146.3,177.647838 74.1,164.747838 72.1,142.047838 C70.1,119.347838 139,94.0478376 225.9,86.4478376 C312.8,78.8478376 385,91.7478376 387,114.447838 C388.9,137.247838 320,162.447838 233.2,170.047838 Z" fill-opacity=".12" fill="#959699" fill-rule="nonzero"/>
    <path d="M275.745565,52.0542602 C314.065366,37.3550906 343.633638,34.0414049 350.515908,45.8517204 C360.711864,63.5247105 316.359456,108.216984 251.53017,145.687121 C186.700884,183.157259 125.780048,199.21589 115.584092,181.457933 C105.388136,163.699977 149.740544,119.09267 214.56983,81.6225322 C232.667652,71.2566437 250.510574,62.4201487 266.994036,55.5378785 C267.079003,55.7927774 267.248935,56.0476763 267.333902,56.3025752 C250.85044,63.1848454 233.007517,71.9363741 214.909695,82.3872289 C150.505241,119.687434 106.407732,164.124808 116.263822,181.118068 C126.119913,198.111328 186.615918,182.22263 251.105338,145.007391 C315.594759,107.792152 359.607302,63.354778 349.751211,46.3615182 C343.208806,34.9760342 313.895433,38.3746861 276.000464,52.9888895 C275.915498,52.6490243 275.830531,52.3941254 275.745565,52.0542602 L275.745565,52.0542602 Z" fill-opacity=".12" fill="#959699" fill-rule="nonzero"/>
    <g fill="#C4C6CC" fill-rule="nonzero">
      <path d="M303.1 47.400000000000006A2.8 2.8 0 1 0 303.1 53A2.8 2.8 0 1 0 303.1 47.400000000000006Z" transform="translate(41 39.247838)"/>
      <path d="M316.3 0A1.7 1.7 0 1 0 316.3 3.4A1.7 1.7 0 1 0 316.3 0Z" transform="translate(41 39.247838)"/>
      <path d="M121.6 133.39999999999998A2.8 2.8 0 1 0 121.6 139A2.8 2.8 0 1 0 121.6 133.39999999999998Z" transform="translate(41 39.247838)"/>
      <path d="M33 89.30000000000001A1.1 1.1 0 1 0 33 91.5A1.1 1.1 0 1 0 33 89.30000000000001Z" transform="translate(41 39.247838)"/>
      <path d="M290.5 113.60000000000001A1.1 1.1 0 1 0 290.5 115.8A1.1 1.1 0 1 0 290.5 113.60000000000001Z" transform="translate(41 39.247838)"/>
      <path d="M70.4 33.099999999999994A2.2 2.2 0 1 0 70.4 37.5A2.2 2.2 0 1 0 70.4 33.099999999999994Z" transform="translate(41 39.247838)"/>
      <path d="M1.7 67.2A1.7 1.7 0 1 0 1.7 70.60000000000001A1.7 1.7 0 1 0 1.7 67.2Z" transform="translate(41 39.247838)"/>
      <path d="M233.8 156.60000000000002A1.7 1.7 0 1 0 233.8 160A1.7 1.7 0 1 0 233.8 156.60000000000002Z" transform="translate(41 39.247838)"/>
    </g>
  </g>
</svg>
