<svg xmlns="http://www.w3.org/2000/svg" viewBox="0 0 440 200" class="design-iconfont">
  <defs>
    <linearGradient x1="49.9999805%" y1="0%" x2="49.9999805%" y2="99.8798969%" id="2cxinoel6__7451keepfa">
      <stop stop-color="#E6EAED" offset="0%"/>
      <stop stop-color="#F7F9FC" stop-opacity=".6" offset="100%"/>
    </linearGradient>
    <linearGradient x1="14.7547727%" y1="50.0027273%" x2="85.5247727%" y2="50.0027273%" id="2cxinoel6__gh9vvhij3b">
      <stop stop-color="#E2E3E6" offset="0%"/>
      <stop stop-color="#ECEEF0" offset="45.43%"/>
      <stop stop-color="#E2E4E6" offset="100%"/>
    </linearGradient>
    <linearGradient x1="15.5358333%" y1="50.0002161%" x2="85.2858333%" y2="50.0002161%" id="2cxinoel6__ft53z2zhuc">
      <stop stop-color="#F1F3F5" offset="0%"/>
      <stop stop-color="#F4F5F7" offset="45.76%"/>
      <stop stop-color="#ECEEF0" offset="100%"/>
    </linearGradient>
    <linearGradient x1="48.6490677%" y1="25.0399969%" x2="50.591558%" y2="43.6922307%" id="2cxinoel6__kcy1vul60d">
      <stop stop-color="#CDD0D2" stop-opacity="0" offset="0%"/>
      <stop stop-color="#CDD0D2" offset="100%"/>
    </linearGradient>
    <linearGradient x1="51.3095417%" y1="25.4404192%" x2="49.3670514%" y2="44.092653%" id="2cxinoel6__nllmxwkg2e">
      <stop stop-color="#CDD0D2" stop-opacity="0" offset="0%"/>
      <stop stop-color="#CDD0D2" offset="100%"/>
    </linearGradient>
    <linearGradient x1="83.8258333%" y1="50.0002161%" x2="14.0658333%" y2="50.0002161%" id="2cxinoel6__8af781646f">
      <stop stop-color="#F1F3F5" offset="0%"/>
      <stop stop-color="#F4F5F7" offset="45.76%"/>
      <stop stop-color="#ECEEF0" offset="100%"/>
    </linearGradient>
    <linearGradient x1="47.9165289%" y1="46.2921212%" x2="55.9406612%" y2="83.3021212%" id="2cxinoel6__de3cn2h0tg">
      <stop stop-color="#E8E9EB" offset="0%"/>
      <stop stop-color="#D7D8DB" offset="100%"/>
    </linearGradient>
    <linearGradient x1="49.8682763%" y1="55.0772552%" x2="49.9876699%" y2="56.2669416%" id="2cxinoel6__eqvglqeowh">
      <stop stop-color="#EBEDEF" stop-opacity="0" offset="0%"/>
      <stop stop-color="#C8CACC" offset="100%"/>
    </linearGradient>
    <linearGradient x1="14.7735417%" y1="50.0009091%" x2="85.5335417%" y2="50.0009091%" id="2cxinoel6__dr3zzgwz0i">
      <stop stop-color="#EAEBED" offset="0%"/>
      <stop stop-color="#F4F5F7" offset="45.43%"/>
      <stop stop-color="#EEF0F2" offset="100%"/>
    </linearGradient>
    <linearGradient x1="50.0115789%" y1="1.64368421%" x2="50.0115789%" y2="98.3536842%" id="2cxinoel6__qsie72mlej">
      <stop stop-color="#E1E2E6" offset="0%"/>
      <stop stop-color="#F0F2F5" offset="100%"/>
    </linearGradient>
    <linearGradient x1="50.0057143%" y1="1.65%" x2="50.0057143%" y2="98.36%" id="2cxinoel6__ixsxa536ek">
      <stop stop-color="#E1E2E6" offset="0%"/>
      <stop stop-color="#F0F2F5" offset="100%"/>
    </linearGradient>
    <linearGradient x1="14.7711334%" y1="49.9975243%" x2="85.2012801%" y2="49.9975243%" id="2cxinoel6__ua80e9lh5l">
      <stop stop-color="#E2E3E6" offset="0%"/>
      <stop stop-color="#FBFDFF" offset="47.66%"/>
      <stop stop-color="#E2E4E6" offset="100%"/>
    </linearGradient>
  </defs>
  <g fill-rule="nonzero" fill="none">
    <path d="M230.215161,151.958261 L230.215161,159.126867 C230.215161,161.186811 231.945515,162.917164 234.005459,162.917164 C236.065403,162.917164 237.713358,164.482722 237.795756,166.542666 L237.795756,166.707461 L237.795756,167.449041 C238.702132,167.037052 239.690905,166.789859 240.679678,166.789859 C244.222782,166.789859 247.106704,169.426588 247.601091,172.804896 C248.425068,172.145714 249.413842,171.733725 250.56741,171.733725 C251.556184,171.733725 252.462559,172.063316 253.204139,172.557703 C255.099288,169.096997 258.72479,166.789859 262.927076,166.789859 C268.859715,166.789859 273.638786,171.404134 274.050775,177.254376 C278.088265,177.83116 282.372949,178.490342 285.009678,178.984729 C290.942317,180.220695 294.732615,181.456662 296.050979,181.456662 C297.369343,181.456662 299.34689,179.726309 307.998656,180.550287 C308.163451,180.879878 306.103507,180.962275 304.125961,181.951049 C302.148414,182.939822 300.83005,182.857424 300.83005,183.104617 C300.83005,183.351811 301.901221,182.775026 304.125961,184.175788 C306.3507,185.57655 310.305793,186.070937 310.305793,186.482926 C310.305793,186.894915 305.279529,188.460472 296.957355,185.823744 C294.815013,185.164562 289.871146,190.932405 267.21176,192.580361 C244.469976,194.228316 206.072615,195.464283 206.072615,195.464283 C206.072615,195.464283 208.379753,198.430603 211.758061,199.25458 C211.922857,199.584171 210.439697,200.655342 203.847875,199.419376 C197.338451,198.183409 193.795347,195.464283 193.795347,195.464283 C193.795347,195.464283 180.858898,194.640305 175.997429,193.816327 C171.135961,192.99235 165.532912,190.932405 161.660217,190.520417 C157.787522,190.108428 140.319195,188.048484 146.993414,183.516606 C146.993414,183.516606 152.926054,180.0559 166.439288,176.677591 C168.087243,173.793669 171.135961,171.816123 174.761463,171.816123 C176.986202,171.816123 179.046147,172.557703 180.611704,173.876067 C181.765273,173.711272 183.00124,173.546476 184.237206,173.381681 C185.225979,172.475305 186.544344,171.898521 187.945106,171.898521 C188.933879,171.898521 189.840254,172.145714 190.581834,172.640101 L190.993823,172.557703 C191.817801,169.34419 194.701723,166.954655 198.162429,166.954655 C200.469567,166.954655 202.611909,168.025826 203.930273,169.673781 L203.930273,167.366643 C203.930273,164.977108 205.907819,162.999562 208.297355,162.999562 C210.604492,162.999562 212.582039,161.186811 212.664437,158.797275 L212.664437,158.63248 L212.664437,152.040658 L230.215161,151.958261 L230.215161,151.958261 Z" fill="url(#2cxinoel6__7451keepfa)"/>
    <path d="M199.08474,143.644801 L241.361471,143.644801 L241.361471,149.40981 C241.361471,152.100147 231.94529,154.213984 220.223106,154.213984 C208.500921,154.213984 199.08474,152.100147 199.08474,149.40981 L199.08474,149.40981 L199.08474,143.644801 Z" fill="url(#2cxinoel6__gh9vvhij3b)"/>
    <path d="M199.08474,139.321044 L241.361471,139.321044 L241.361471,145.086053 C241.361471,147.77639 231.94529,149.890227 220.223106,149.890227 C208.500921,149.890227 199.08474,147.77639 199.08474,145.086053 L199.08474,145.086053 L199.08474,139.321044 Z" fill="#C4C6CC"/>
    <path d="M179.868045,72.3508596 C181.597547,72.3508596 185.633053,80.3257883 185.633053,83.5926266 L185.633053,83.5926266 L185.633053,124.908522 L174.103036,124.908522 L174.103036,83.5926266 L174.103036,83.4004596 C174.199119,80.1336213 178.138542,72.3508596 179.868045,72.3508596 Z" fill="url(#2cxinoel6__ft53z2zhuc)"/>
    <path fill-opacity=".6" fill="url(#2cxinoel6__kcy1vul60d)" d="M185.633053 92.912724L185.633053 107.901747 180.924963 116.164926 174.103036 110.592084 174.103036 101.560237z"/>
    <path fill-opacity=".6" fill="url(#2cxinoel6__nllmxwkg2e)" d="M254.813158 93.2009745L254.813158 108.189997 259.521249 116.453176 266.343176 110.880335 266.343176 101.848488z"/>
    <path d="M260.578167,72.3508596 C258.848664,72.3508596 254.813158,80.3257883 254.813158,83.5926266 L254.813158,83.5926266 L254.813158,124.908522 L266.343176,124.908522 L266.343176,83.5926266 L266.343176,83.4004596 C266.151009,80.1336213 262.211586,72.3508596 260.578167,72.3508596 Z" fill="url(#2cxinoel6__8af781646f)"/>
    <path d="M29.7858784,0 C28.4407097,6.72584352 25.4621219,12.7791027 20.7540314,18.3519445 C13.7399375,26.7112071 6.14934264,31.4192976 3.07467132,41.2198124 C1.05691827,47.753489 -1.36542836e-14,53.6145812 -1.36542836e-14,58.803089 L30.8427967,63.415096 L34.5900524,58.803089 L29.7858784,0 Z" fill="url(#2cxinoel6__de3cn2h0tg)" transform="translate(168.300073 73.984279)"/>
    <path d="M29.9780454,1.44125218 L34.5900524,58.803089 L30.8427967,63.415096 L22.0992001,62.0699273 L25.2699549,11.9143514 C27.1916245,8.55142962 28.5367932,5.09242438 29.497628,1.44125218 L29.9780454,1.44125218 Z" fill="url(#2cxinoel6__eqvglqeowh)" transform="translate(168.300073 73.984279)"/>
    <path d="M29.7858784,0 C28.4407097,6.72584352 25.4621219,12.7791027 20.7540314,18.3519445 C13.7399375,26.7112071 6.14934264,31.4192976 3.07467132,41.2198124 C1.05691827,47.753489 -1.36542836e-14,53.6145812 -1.36542836e-14,58.803089 L30.8427967,63.415096 L34.5900524,58.803089 L29.7858784,0 Z" fill="url(#2cxinoel6__de3cn2h0tg)" transform="matrix(-1 0 0 1 272.300351 73.984279)"/>
    <path d="M29.9780454,1.44125218 L34.5900524,58.803089 L30.8427967,63.415096 L22.0992001,62.0699273 L25.2699549,11.9143514 C27.1916245,8.55142962 28.5367932,5.09242438 29.497628,1.44125218 L29.9780454,1.44125218 Z" fill="url(#2cxinoel6__eqvglqeowh)" transform="matrix(-1 0 0 1 272.300351 73.984279)"/>
    <path d="M220.223106,0 C226.948949,0 243.283141,26.6151236 243.283141,39.3942263 L243.283141,39.3942263 L243.283141,141.242714 C243.283141,141.338797 243.283141,141.434881 243.283141,141.530964 C243.283141,141.627048 243.283141,141.723131 243.283141,141.723131 C243.283141,145.182137 233.002208,147.968557 220.223106,147.968557 C207.444003,147.968557 197.163071,145.182137 197.163071,141.723131 C197.163071,141.627048 197.163071,141.530964 197.163071,141.530964 C197.163071,141.434881 197.163071,141.338797 197.163071,141.242714 L197.163071,39.3942263 L197.163071,39.0098924 C197.451321,26.1347062 213.497262,0 220.223106,0 Z" fill="url(#2cxinoel6__dr3zzgwz0i)"/>
    <path stroke="url(#2cxinoel6__qsie72mlej)" fill="#979BA5" d="M220.223106 39.87464371A9.12793049 9.12793049 0 1 0 220.223106 58.130504689999995A9.12793049 9.12793049 0 1 0 220.223106 39.87464371Z"/>
    <path stroke="url(#2cxinoel6__ixsxa536ek)" fill="#979BA5" d="M220.223106 62.934678639999994A3.36292176 3.36292176 0 1 0 220.223106 69.66052216A3.36292176 3.36292176 0 1 0 220.223106 62.934678639999994Z"/>
    <path d="M243.283141,113.378505 L243.283141,115.780592 C239.535885,118.182679 230.600121,119.912182 220.223106,119.912182 C209.84609,119.912182 200.910326,118.182679 197.163071,115.780592 L197.163071,113.378505 L197.163071,113.378505 C197.739572,116.068842 207.828337,118.663096 220.223106,118.663096 C232.617874,118.663096 242.70664,116.068842 243.283141,113.378505 L243.283141,113.378505 Z" fill="url(#2cxinoel6__ua80e9lh5l)"/>
    <path d="M243.283141,118.182679 L243.283141,120.584766 C239.535885,122.986853 230.600121,124.716356 220.223106,124.716356 C209.84609,124.716356 200.910326,122.986853 197.163071,120.584766 L197.163071,118.182679 L197.163071,118.182679 C197.739572,120.873016 207.828337,123.46727 220.223106,123.46727 C232.617874,123.46727 242.70664,120.873016 243.283141,118.182679 L243.283141,118.182679 Z" fill="url(#2cxinoel6__ua80e9lh5l)"/>
    <path d="M243.283141,50.9242438 C284.791203,42.6610646 317.363503,44.8709846 321.014675,57.3618369 C325.434515,72.63911 285.079454,97.6208145 231.080539,113.186338 C177.081624,128.751862 129.616385,128.847945 125.196545,113.570672 C121.353206,100.022901 152.484253,78.8845361 197.163071,63.5111795 L197.163071,64.5680978 C153.156837,79.8453709 122.506208,100.599402 126.15738,113.378505 C130.28897,127.88711 177.273791,127.694943 230.792288,112.321587 C284.310786,96.9482301 324.281513,72.2547761 320.05384,57.7461708 C316.690918,45.8318194 284.310786,43.8140663 243.283141,51.981162 L243.283141,50.9242438 L243.283141,50.9242438 Z" fill-opacity=".1" fill="#343434"/>
    <path d="M91.855578,53.8067481 C95.5067502,40.3550611 140.569902,40.3550611 197.066987,52.7498299 L197.066987,53.7106647 C141.050319,41.4119794 96.1793345,41.3158959 92.7203293,53.9989151 C88.8769902,68.5075204 139.897317,95.506978 206.579252,113.378505 C273.261186,131.250032 331.007357,133.459952 334.946779,118.951347 C338.405785,106.076161 298.723308,83.4004596 243.090974,66.00935 L243.090974,64.9524317 C299.395892,82.5357083 339.462703,105.49966 335.811531,119.143514 C331.679941,134.51687 273.741603,132.30695 206.291001,114.243256 C138.840399,96.1795623 87.8200719,69.1801048 91.855578,53.8067481 Z" fill-opacity=".1" fill="#343434"/>
    <path fill="#C4C6CC" d="M296.129054 83.59262662A1.92166958 1.92166958 0 1 0 296.129054 87.43596578A1.92166958 1.92166958 0 1 0 296.129054 83.59262662Z"/>
    <path fill="#C4C6CC" d="M103.481679 96.08347882A1.44125218 1.44125218 0 1 0 103.481679 98.96598318000001A1.44125218 1.44125218 0 1 0 103.481679 96.08347882Z"/>
    <path fill="#C4C6CC" d="M261.539002 35.511722A1 1 0 1 0 261.539002 37.511722A1 1 0 1 0 261.539002 35.511722Z"/>
    <path fill="#C4C6CC" d="M175.063871 137.36021A1 1 0 1 0 175.063871 139.36021A1 1 0 1 0 175.063871 137.36021Z"/>
    <path fill="#C4C6CC" d="M328.797437 122.98685242A1.92166958 1.92166958 0 1 0 328.797437 126.83019158A1.92166958 1.92166958 0 1 0 328.797437 122.98685242Z"/>
  </g>
</svg>
